<svg xmlns="http://www.w3.org/2000/svg" viewBox="0 0 499.999 499.999"><path d="M383.881 231.977c-10.017-8.274-22.603-13.383-35.812-13.406-.644-.004-1.295-.015-1.938 0-9.633.227-18.976 2.605-27.375 7.25-11.646 5.997-20.39 16.144-25.438 27.938 28.064-.579 55.542-1.129 86.812-1.594 1.387-.021 2.726-.066 4.094-.094a47.505 47.505 0 01-1.25-10.812 47.78 47.78 0 01.907-9.282zm5.281 4.875a41.905 41.905 0 00-.25 4.406c0 13.535 6.472 25.549 16.5 33.125-.363-14.176-6.615-27.478-16.25-37.531zM95.1 201.009c-22.917 0-41.5 18.583-41.5 41.5s18.583 41.5 41.5 41.5 41.469-18.583 41.469-41.5-18.552-41.5-41.469-41.5zm0 71.687c-16.668 0-30.188-13.52-30.188-30.188S78.431 212.32 95.1 212.32c16.668 0 30.156 13.519 30.156 30.188s-13.488 30.188-30.156 30.188zm375.156-32.844a5.175 5.175 0 001.625.844c-.138-10.297-4.007-19.692-10.344-26.875-.428.454-.841.939-1.25 1.406 3.236 7.636 7.594 16.14 9.969 24.625zm-8.719-26.031z"/><path d="M499.163 220.072c-.212-9.222.009-18.454-.625-27.656-.251-3.648-.324-7.802-1.25-10.906-.325-1.09-1.367-2.156-2.094-3.031-.669-.806-1.984-.958-2.094-2-.419-3.963-.463-8.103-.656-12.156-.124-2.615.025-5.238-.188-7.844-.026.175-.072.36-.125.531-.265.854-1.238 1.303-1.656 2.094-.444.84-.685 1.782-.844 2.719-.31 1.827-.301 3.712-.219 5.562.086 1.935.6 3.819.75 5.75.095 1.219.591 2.57.094 3.688-.373.838-1.246 1.431-2.094 1.781-1.652.682-3.571.629-5.344.406-1.83-.229-3.667-.833-5.25-1.781-3.117-1.867-5.415-4.854-7.969-7.438-4.189-4.238-8.435-8.468-12.031-13.219-.919-1.213-2.146-2.376-2.406-3.875-.226-1.303.048-2.796.812-3.875 1.47-2.072 4.209-2.871 6.5-3.969 2.71-1.299 5.567-2.406 8.5-3.062 2.123-.475 4.324-.61 6.5-.625 2.103-.014 4.259-.045 6.281.531 1.848.526 3.764 1.268 5.125 2.625.181.18.352.387.5.594-1.344-3.192-3.358-6.003-5.344-8.844-.384-.141-4.759-1.764-7.188-2.344-1.754-.419-5.031-.406-5.031-.406s-4.24-6.146-6.594-9.031c-2.861-3.507-5.883-6.873-9.125-10.031-3.531-3.44-7.274-6.7-11.219-9.656-3.9-2.923-12.25-7.969-12.25-7.969l6.875-3.406c-1.023-1.131.384-4.064-.688-5.375-.813-.995-2.172-.995-3.875-1.031-4.61-.099-8.93-.348-13.531-.656-5.897-.395-11.735-1.322-17.594-2.094-5.809-.766-11.582-1.892-17.406-2.531-12.048-1.322-24.144-2.137-36.25-2.719-13.261-.637-26.574-.424-39.844-.844a716.817 716.817 0 01-14.875-.625c-4.404-.231-8.78-.949-13.188-.844v-.001c-.832 1.213-1.739 1.719-2.812 2.094-3.491 1.218-6.694 1.779-10.781 2.281-6.247.768-12.975 2.037-19.125 3.375-7.867 1.711-15.588 4.027-23.25 6.5a266.544 266.544 0 00-20.531 7.562c-6.406 2.666-12.693 5.662-18.875 8.812a261.15 261.15 0 00-15.5 8.594 280.69 280.69 0 00-15.312 9.844c-5.717 3.943-11.243 8.113-16.75 12.344-3.193 2.453-6.413 4.905-9.438 7.562-2.041 1.794-1.845 2.079-4.5 3.875-2.035 1.376-4.521 1.18-6.812.094s-6.094-3.344-6.094-3.344 4.564-3.412 8.156-5.906c-.066.01-.158.054-.219.062-2.283.315-5.221-.536-7.5-.875a21.038 21.038 0 00-4.219-.188c-3.039.169-6.015.877-9 1.469-14.71 2.918-29.413 6.06-43.812 10.25-10.374 3.019-20.642 6.482-30.594 10.688-3.31 1.399-6.664 2.809-9.625 4.844-2.73 1.877-5.281 4.095-7.344 6.688-1.947 2.448-3.292 5.358-4.625 8.188-1.244 2.641-2.548 5.295-3.125 8.156-.898 4.453-.465 9.082-.438 13.625.03 4.895.176 9.816.656 14.688.492 4.995 1.219 9.329 1.437 14.344.046 1.049.028 2.762-.406 3.719-.327.72-.396.868-.625 1.625-.206.682.126 1.439.406 2.094.671 1.568 1.732 2.982 2.938 4.188.603.603 1.474.883 2.094 1.469.903.855 1.428 2.063 2.312 2.938 1.878 1.856 3.938 3.595 6.281 4.812 3.314 1.721 7.045 2.554 10.688 3.375 3.923.884 7.961 1.326 11.969 1.656 2.786.23 5.151.529 8.375.219 2.305-.043 1.939-.023 4.031-.062a47.513 47.513 0 01-2.656-15.656c0-26.207 21.262-47.438 47.469-47.438s47.438 21.231 47.438 47.438c0 4.827-.723 9.487-2.062 13.875 1.499-.026 1.209-.004 2.812-.031 18.07-.22 34.225-.475 49.656-.719.146-4.481.396-8.944.75-13.406 9.191-3.291 19.552-.917 29.219-1.531 3.144-7.776 6.06-16.964 10.531-24.656-.334-3.815-6.09-5.009-7.844-8.438-3.289-5.432-13.337-8.696-10.594-16.406 15.534-14.822 29.941-31.187 46.156-45.312-1.159.074-2.474.146-3.438.219-14.348 1.087-28.671 2.562-42.969 4.188-5.39.613-15.312 1.375-15.312 1.375s.05-3.932-.5-5.781c-.553-1.857-2.719-5.125-2.719-5.125l8.25-33.219s9.283-4.035 14.062-5.656c7.416-2.515 15.006-4.471 22.625-6.281 7.691-1.828 15.463-3.453 23.281-4.625 6.112-.916 12.277-1.386 18.438-1.875 3.697-.294 11.094-.625 11.094-.625s-3.334 18.496-5.438 27.656c-2.215 9.645-7.562 28.719-7.562 28.719s-7.775.348-15.062.75c7.336 4.599 12.56 12.413 19.094 18.125 7.645-3.31 16.032-7.594 24.469-9.906 1.895-3.347.64-8.881.906-13.031.605-5.546-1.956-13.279 2.562-17.25l.375-.031 3.5-35.156s9.711.014 14.562.219c6.997.295 13.993.849 20.969 1.469 7.139.635 14.279 1.304 21.375 2.312 5.163.734 10.536 1.65 15.406 2.719 1.167.256 2.799.994 2.844 2.188.275 7.346.32 14.338.406 21.5.092 7.649.094 22.937.094 22.937s-5.229.028-9.062.062c-.156 3.826-.331 7.68-.094 11.406 7.652 3.226 16.879 5.817 24.344 10.5 4.07-.169 5.262-5.998 8.719-7.75 5.385-3.392 8.702-13.368 16.406-10.656 15.454 16.219 32.575 31.104 47.125 48.219-3.08 6.485-8.787 11.229-14.125 16.188 7.374 8.244 11.908 19.075 12.062 30.969 2.21-.339 4.468-.669 6.438.031 1.149.193 2.482.127 3.875.031.386-.305.778-.596 1.156-.906 2.521-2.067 4.804-4.414 6.906-6.906 1.325-1.57 3.019-3.05 3.562-5.031.691-2.508-.486-1.938-.62-7.788zM65.1 164.977c-2.9 2.933-6.396 5.185-9.625 7.75-4.519 3.59-8.847 7.449-13.625 10.688-2.073 1.405-4.169 2.835-6.5 3.75-2.067.811-4.303 1.148-6.5 1.469-4.088.596-8.213.9-12.344.844-1.474-.02-3.165.388-4.406-.406-.818-.523-.851-1.783-1.469-2.531-.945-1.146-2.175-2.063-3.375-2.938-.659-.48-1.953-.448-2.094-1.25-.42-2.397 2.955-3.886 4.625-5.656 1.561-1.654 2.911-3.769 5.031-4.594.977-.38 2.105.241 3.125 0 2.585-.61 4.682-2.522 7.125-3.562 3.07-1.307 6.269-2.33 9.438-3.375 3.19-1.052 6.386-2.171 9.656-2.938 2.896-.679 5.829-1.1 8.781-1.469a92.44 92.44 0 017.562-.625c1.221-.051 2.545-.406 3.781-.438.742-.019 1.462.065 2.094.438.62.365 1.088 1.189 1.031 1.906-.097 1.24-1.437 2.053-2.311 2.937zm126.906-27.375s-3.456-.795-5.125-.625c-1.433.146-4.058 1.004-5.969 2-1.667.869-3.672 2.151-5.125 3.344-1.566 1.286-3.363 3.579-4.094 5.469-1.062 2.743 0 7.938 0 7.938s-4.15.376-6.812.656c-2.648.279-7.969.625-7.969.625s2.584-10.739 4.406-15.938c1.232-3.515 4.406-10.281 4.406-10.281s3.894-3.794 6.062-5.437c4.156-3.148 8.681-5.809 13.219-8.375 4.759-2.691 14.656-7.344 14.656-7.344-2.22 9.085-5.414 18.888-7.655 27.968zm257.375-5.531c-5.946 2.791-12.568 3.867-18.969 5.344-6.122 1.412-18.531 3.344-18.531 3.344l-7.344-41.719s6.792 1.645 10.062 2.844c4.579 1.678 9.104 3.599 13.312 6.062 5.264 3.082 10.196 6.79 14.781 10.812 3.12 2.737 6.392 5.481 8.594 9 1.949 3.113.952 2.972-1.905 4.313z"/><path d="M450.117 214.14c6.76-6.687 13.453-13.403 20.188-20.117-13.448-13.438-26.896-26.855-40.344-40.293-6.718 6.74-13.668 13.441-20.338 20.229-10.725-6.44-22.62-11.274-34.62-14.24V131.5h-57v25.126c-1 6.059-9.167 4.513-13.505 7.312-7.202 2.66-14.024 6.084-20.659 10.031-6.671-6.787-13.393-13.479-20.111-20.219-13.438 13.438-26.852 26.875-40.29 40.312 6.74 6.718 13.443 13.407 20.23 20.078-6.433 10.699-11.253 22.359-14.301 34.359h-28.364v57h28.364c3.102 12 7.782 23.812 14.281 34.485-6.729 6.729-13.458 13.498-20.188 20.227 13.438 13.448 26.875 26.915 40.312 40.363 6.713-6.735 13.288-13.417 19.974-20.178 10.727 6.405 22.255 11.217 34.255 14.26v28.843h57v-28.843c12-3.036 23.892-7.848 34.62-14.25 6.687 6.76 13.534 13.453 20.247 20.188 13.448-13.448 26.941-26.896 40.389-40.344-6.729-6.729-13.436-13.537-20.165-20.266 6.425-10.721 11.207-22.485 14.273-34.485h28.636v-57h-28.636a129.822 129.822 0 00-14.248-34.359zm-87.562 127.766c-29.257 7.309-62.197-7.76-75.188-34.844-14.128-27.403-6.082-64.302 18.875-82.563 11.563-8.869 25.981-13.916 40.625-13.844 33.664-.785 64.505 27.784 66.403 61.433 2.81 31.588-19.846 62.938-50.715 69.818z"/></svg>