<svg width="23" height="23" fill="none" xmlns="http://www.w3.org/2000/svg"><path d="M11.5 12a3.5 3.5 0 100-7 3.5 3.5 0 000 7z" fill="#252525"/><path d="M20.69 8.594a1.483 1.483 0 00-.303-2.107l-.63-.456a1.483 1.483 0 01-.607-1.33l.067-.774A1.482 1.482 0 0017.82 2.31l-.777-.043a1.486 1.486 0 01-1.23-.79l-.359-.689a1.485 1.485 0 00-2.048-.593l-.676.383a1.486 1.486 0 01-1.464 0L10.59.195a1.485 1.485 0 00-2.046.6l-.36.688a1.484 1.484 0 01-1.23.79l-.776.044a1.486 1.486 0 00-1.395 1.617l.066.774a1.483 1.483 0 01-.608 1.33l-.629.456a1.484 1.484 0 00-.304 2.108l.475.614a1.483 1.483 0 01.208 1.446l-.282.72a1.483 1.483 0 00.885 1.936l.732.26a1.485 1.485 0 01.958 1.105l.14.683-1.868 6.067 2.963-.927L9.365 23l1.685-5.503a1.487 1.487 0 001.81.066L14.633 23l1.845-2.494 2.963.927-1.913-5.864c.013-.041.024-.08.033-.124l.152-.762a1.485 1.485 0 01.959-1.105l.732-.26a1.485 1.485 0 00.884-1.937l-.282-.719a1.484 1.484 0 01.208-1.446l.477-.622zm-13.824.327a5.127 5.127 0 013.169-4.738 5.137 5.137 0 016.999 3.738 5.126 5.126 0 01-2.183 5.265 5.136 5.136 0 01-7.985-4.265z" fill="#252525"/></svg>