<svg width="36" height="35" fill="none" xmlns="http://www.w3.org/2000/svg"><path d="M30.75 0H5.25a5.309 5.309 0 00-3.697 1.55A5.284 5.284 0 000 5.237v19.454a6.724 6.724 0 001.454 3.933 6.751 6.751 0 003.505 2.313l16.739 3.922a4.405 4.405 0 003.73-.732A4.285 4.285 0 0027 30.678V16.173a6.371 6.371 0 00-1.305-3.852 6.397 6.397 0 00-3.373-2.284L6.084 5.571a1.126 1.126 0 01-.784-1.38 1.122 1.122 0 01.946-.816c.147-.018.296-.007.438.032l5.301 1.46H30.75a1.126 1.126 0 011.125 1.122A1.12 1.12 0 0130.75 7.11h-7.852a.376.376 0 00-.314.58c.05.076.125.13.213.155l.129.036a8.58 8.58 0 014.35 2.834.38.38 0 00.291.136h3.183a1.126 1.126 0 011.125 1.123 1.12 1.12 0 01-1.125 1.122h-1.557a.375.375 0 00-.357.49c.276.835.418 1.71.422 2.59v10.388a.374.374 0 00.375.374h1.117a5.256 5.256 0 003.712-1.534A5.231 5.231 0 0036 21.702V5.24a5.226 5.226 0 00-1.537-3.706A5.252 5.252 0 0030.75 0zm-7.5 22.447a2.987 2.987 0 01-1.852 2.765 3.006 3.006 0 01-3.27-.649 2.991 2.991 0 012.122-5.109c.796 0 1.559.315 2.121.877a2.99 2.99 0 01.879 2.116z" fill="#252525"/></svg>