<svg width="37" height="36" fill="none" xmlns="http://www.w3.org/2000/svg"><path d="M36.166 26.34c-.872-1.403-2.56-2.297-5.921-4.08a293.3 293.3 0 01-2.538-1.355.391.391 0 00-.446.05L21.5 26.024l-5.78-5.068a.392.392 0 00-.446-.05 291.88 291.88 0 01-2.66 1.418c-3.308 1.748-4.968 2.626-5.828 4.015a4.68 4.68 0 00-.189.34C3.156 25.481.787 22.175.787 18.5c0-4.774 3.881-8.659 8.652-8.659a8.59 8.59 0 014.775 1.44c.942 3.546 3.452 7.615 7.421 7.615 5.15 0 7.844-6.848 7.844-10.519C29.48 4.31 25.961 1 21.635 1c-4.324 0-7.843 3.31-7.843 7.377 0 .551.062 1.174.182 1.835A9.376 9.376 0 009.44 9.049C4.234 9.05 0 13.29 0 18.5c0 2.08.662 4.054 1.915 5.707a9.525 9.525 0 004.394 3.21c-.376 1.261-.358 2.937-.328 5.64.009.752.018 1.606.02 2.548 0 .218.176.395.394.395h30.179a.395.395 0 00.393-.395c.002-.92.011-1.757.02-2.495.038-3.569.057-5.36-.82-6.77zM7.11 27.496zm-.075.248l-.015.057.015-.057zm-.034.134l-.014.058.014-.058zm.261-.669zm-.004-.086zm.002.105zm-.06.17l-.007.01.007-.01zm-.38 1.66l-.005.071.006-.072zm-.013.175l-.005.075.005-.075zm-.012.185l-.004.072.004-.072zm-.021.445l-.003.075.003-.075zm-.02 1.66l.001.071v-.07zm.005.588zm.002.275l.001.1v-.1zm.003.293l.001.09v-.09z" fill="#252525"/><path d="M7.29 19.65a2.066 2.066 0 01-.43-.9L5 18.951c.144.851.47 1.511.986 1.978.515.466 1.148.777 1.968.87L7.96 23 9 22.98l.003-1.231c.935-.134 1.686-.468 2.21-1.007.525-.54.786-1.204.786-1.992 0-.705-.207-1.283-.625-1.733-.415-.45-1.198-.817-2.348-1.099v-2.551c.464.183.752.531.864 1.044l1.816-.214c-.125-.653-.412-1.176-.862-1.567-.451-.39-1.083-.612-1.844-.695V11H7.954l.007.923c-.815.074-1.44.35-1.931.837-.49.484-.737 1.085-.737 1.799 0 .705.217 1.303.652 1.799.431.493 1.112.861 2.043 1.105v2.734a1.926 1.926 0 01-.699-.547zm1.737-1.906c.432.114.742.275.93.486.19.21.285.463.285.753a1.2 1.2 0 01-.339.853 1.58 1.58 0 01-.876.468v-2.56zm-1.725-2.618a1.048 1.048 0 01-.223-.643c0-.252.08-.482.244-.692a1.34 1.34 0 01.664-.45v2.263c-.307-.121-.536-.282-.685-.478z" fill="#252525"/></svg>