<?xml version="1.0" encoding="utf-8"?><svg viewBox="0 0 37 36" xmlns="http://www.w3.org/2000/svg" xmlns:xlink="http://www.w3.org/1999/xlink"><style>:root>svg{display:none}:root>svg:target{display:block}</style><svg fill="none" viewBox="0 0 35 35" id="css--benefits-1" xmlns="http://www.w3.org/2000/svg"><path d="M17.5 0C10.597 0 5 5.593 5 12.492 5 20.57 15.417 35 17.5 35 19.584 35 30 20.57 30 12.492 30 5.593 24.404 0 17.5 0zm0 19.529a7.075 7.075 0 01-7.076-7.072A7.074 7.074 0 0117.5 5.385a7.074 7.074 0 017.076 7.072 7.074 7.074 0 01-7.076 7.072z" fill="#252525"/></svg><svg fill="none" viewBox="0 0 30 30" id="css--benefits-2" xmlns="http://www.w3.org/2000/svg"><path d="M2.895 7.355L.069 2.68 1.953.81l4.71 2.805v1.87l4.843 4.81v.4l-1.75 1.603L4.78 7.355H2.895zM23.077 18.71H22c-.942 0-1.75-.134-2.557-.267l-2.825 3.206 6.323 7.08c1.48 1.603 4.037 1.736 5.517.134 1.614-1.604 1.48-4.008-.135-5.477l-5.247-4.676zm4.574-5.076c2.153-2.137 2.826-5.343 2.019-8.149-.135-.534-.808-.668-1.077-.267l-4.709 4.676-3.767-3.74 4.709-4.676c.404-.401.27-.935-.269-1.069-2.825-.935-6.055-.267-8.207 2.004-2.422 2.404-2.96 6.145-1.615 9.084L1.28 23.386c-1.614 1.469-1.749 4.007-.134 5.477 1.614 1.602 4.036 1.469 5.516-.134L18.637 15.37c2.96 1.335 6.593.801 9.014-1.737z" fill="#fff"/></svg><svg fill="none" viewBox="0 0 30 30" id="css--benefits-3" xmlns="http://www.w3.org/2000/svg"><path d="M15 0C9.477 0 5 4.794 5 10.708 5 17.63 13.333 30 15 30c1.667 0 10-12.37 10-19.292C25 4.794 20.523 0 15 0zm0 16.739c-3.126 0-5.66-2.714-5.66-6.062 0-3.347 2.534-6.061 5.66-6.061 3.127 0 5.661 2.714 5.661 6.061s-2.534 6.062-5.66 6.062z" fill="#fff"/></svg><svg fill="none" viewBox="0 0 27 35" id="css--benefits-4" xmlns="http://www.w3.org/2000/svg"><path d="M13.5 19a5.5 5.5 0 100-11 5.5 5.5 0 000 11z" fill="#252525"/><path d="M26.536 13.079a2.273 2.273 0 00.441-1.702 2.278 2.278 0 00-.896-1.505l-.944-.695a2.252 2.252 0 01-.719-.89 2.285 2.285 0 01-.193-1.133l.1-1.178a2.287 2.287 0 00-.532-1.681 2.232 2.232 0 00-1.561-.78l-1.165-.066a2.207 2.207 0 01-1.079-.355 2.247 2.247 0 01-.766-.848l-.54-1.047a2.252 2.252 0 00-.562-.693 2.218 2.218 0 00-1.668-.49 2.206 2.206 0 00-.842.281l-1.014.582a2.204 2.204 0 01-2.195 0L11.387.297a2.207 2.207 0 00-3.07.913l-.539 1.047a2.247 2.247 0 01-.766.848c-.323.21-.695.333-1.079.355l-1.165.066a2.204 2.204 0 00-1.561.78 2.267 2.267 0 00-.532 1.68l.1 1.179c.033.388-.033.779-.193 1.133-.16.355-.407.661-.719.89l-.944.694a2.278 2.278 0 00-.456 3.207l.713.936a2.274 2.274 0 01.313 2.2l-.424 1.094a2.286 2.286 0 00.57 2.484c.219.204.476.362.757.463l1.098.397c.362.13.685.354.937.649.252.294.424.65.5 1.032l.21 1.04-2.802 9.232 4.445-1.41L9.547 35l2.528-8.374a2.206 2.206 0 002.716.101L17.45 35l2.767-3.795 4.445 1.41-2.87-8.923a2.18 2.18 0 00.049-.189l.229-1.159a2.27 2.27 0 01.5-1.032 2.23 2.23 0 01.938-.65l1.097-.396a2.22 2.22 0 00.758-.463 2.258 2.258 0 00.72-1.6 2.287 2.287 0 00-.15-.884l-.424-1.094a2.287 2.287 0 01.313-2.2l.714-.946zm-20.738.497A7.88 7.88 0 017.096 9.24a7.724 7.724 0 013.456-2.875A7.604 7.604 0 0115 5.92a7.668 7.668 0 013.943 2.136 7.839 7.839 0 012.107 3.996 7.904 7.904 0 01-.438 4.51 7.784 7.784 0 01-2.836 3.503 7.626 7.626 0 01-4.278 1.316 7.656 7.656 0 01-5.443-2.289A7.868 7.868 0 015.8 13.576z" fill="#252525"/></svg><svg fill="none" viewBox="0 0 37 36" id="css--benefits-5" xmlns="http://www.w3.org/2000/svg"><path d="M36.166 26.34c-.872-1.403-2.56-2.297-5.921-4.08a293.3 293.3 0 01-2.538-1.355.391.391 0 00-.446.05L21.5 26.024l-5.78-5.068a.392.392 0 00-.446-.05 291.88 291.88 0 01-2.66 1.418c-3.308 1.748-4.968 2.626-5.828 4.015a4.68 4.68 0 00-.189.34C3.156 25.481.787 22.175.787 18.5c0-4.774 3.881-8.659 8.652-8.659a8.59 8.59 0 014.775 1.44c.942 3.546 3.452 7.615 7.421 7.615 5.15 0 7.844-6.848 7.844-10.519C29.48 4.31 25.961 1 21.635 1c-4.324 0-7.843 3.31-7.843 7.377 0 .551.062 1.174.182 1.835A9.376 9.376 0 009.44 9.049C4.234 9.05 0 13.29 0 18.5c0 2.08.662 4.054 1.915 5.707a9.525 9.525 0 004.394 3.21c-.376 1.261-.358 2.937-.328 5.64.009.752.018 1.606.02 2.548 0 .218.176.395.394.395h30.179a.395.395 0 00.393-.395c.002-.92.011-1.757.02-2.495.038-3.569.057-5.36-.82-6.77zM7.11 27.496zm-.075.248l-.015.057.015-.057zm-.034.134l-.014.058.014-.058zm.261-.669zm-.004-.086zm.002.105zm-.06.17l-.007.01.007-.01zm-.38 1.66l-.005.071.006-.072zm-.013.175l-.005.075.005-.075zm-.012.185l-.004.072.004-.072zm-.021.445l-.003.075.003-.075zm-.02 1.66l.001.071v-.07zm.005.588zm.002.275l.001.1v-.1zm.003.293l.001.09v-.09z" fill="#252525"/><path d="M7.29 19.65a2.066 2.066 0 01-.43-.9L5 18.951c.144.851.47 1.511.986 1.978.515.466 1.148.777 1.968.87L7.96 23 9 22.98l.003-1.231c.935-.134 1.686-.468 2.21-1.007.525-.54.786-1.204.786-1.992 0-.705-.207-1.283-.625-1.733-.415-.45-1.198-.817-2.348-1.099v-2.551c.464.183.752.531.864 1.044l1.816-.214c-.125-.653-.412-1.176-.862-1.567-.451-.39-1.083-.612-1.844-.695V11H7.954l.007.923c-.815.074-1.44.35-1.931.837-.49.484-.737 1.085-.737 1.799 0 .705.217 1.303.652 1.799.431.493 1.112.861 2.043 1.105v2.734a1.926 1.926 0 01-.699-.547zm1.737-1.906c.432.114.742.275.93.486.19.21.285.463.285.753a1.2 1.2 0 01-.339.853 1.58 1.58 0 01-.876.468v-2.56zm-1.725-2.618a1.048 1.048 0 01-.223-.643c0-.252.08-.482.244-.692a1.34 1.34 0 01.664-.45v2.263c-.307-.121-.536-.282-.685-.478z" fill="#252525"/></svg></svg>