<svg width="30" height="30" fill="none" xmlns="http://www.w3.org/2000/svg"><path d="M15 17a5 5 0 100-10 5 5 0 000 10z" fill="#fff"/><path d="M25.605 11.21a1.951 1.951 0 00.376-1.458 1.96 1.96 0 00-.254-.724 1.922 1.922 0 00-.51-.567l-.804-.595a1.928 1.928 0 01-.613-.763 1.97 1.97 0 01-.164-.971l.085-1.01a1.972 1.972 0 00-.453-1.44 1.903 1.903 0 00-.598-.473 1.868 1.868 0 00-.732-.196l-.992-.056a1.872 1.872 0 01-.92-.305 1.92 1.92 0 01-.652-.727l-.46-.897a1.929 1.929 0 00-.479-.595 1.886 1.886 0 00-1.42-.42 1.865 1.865 0 00-.717.242l-.864.499a1.869 1.869 0 01-1.87 0l-.864-.5a1.872 1.872 0 00-2.137.187 1.928 1.928 0 00-.478.596l-.46.898a1.922 1.922 0 01-.652.726 1.869 1.869 0 01-.919.305l-.992.056a1.868 1.868 0 00-.732.196 1.903 1.903 0 00-.598.473 1.947 1.947 0 00-.453 1.44l.085 1.01a1.97 1.97 0 01-.165.972 1.928 1.928 0 01-.612.762l-.804.596a1.922 1.922 0 00-.51.566 1.96 1.96 0 00-.21 1.492c.064.25.177.486.332.69l.607.802a1.972 1.972 0 01.267 1.886l-.362.938a1.97 1.97 0 00.485 2.129c.187.175.407.31.646.397l.935.34c.309.112.584.304.798.556.215.253.362.558.426.885l.18.89-2.388 7.914 3.787-1.209L11.133 30l2.153-7.178a1.871 1.871 0 002.314.087L17.864 30l2.357-3.253 3.786 1.21-2.444-7.65c.016-.053.03-.105.041-.161l.195-.994a1.95 1.95 0 01.427-.885c.214-.252.49-.444.798-.556l.935-.34a1.89 1.89 0 00.646-.397 1.966 1.966 0 00.485-2.13l-.361-.937a1.972 1.972 0 01.266-1.886l.609-.81zm-17.666.427c0-1.324.385-2.617 1.106-3.717a6.59 6.59 0 012.944-2.465 6.44 6.44 0 013.79-.38 6.52 6.52 0 013.358 1.83 6.733 6.733 0 011.795 3.426 6.815 6.815 0 01-.373 3.866 6.664 6.664 0 01-2.416 3.003 6.468 6.468 0 01-3.644 1.127 6.502 6.502 0 01-4.636-1.961 6.766 6.766 0 01-1.924-4.73z" fill="#fff"/></svg>