<svg width="30" height="30" fill="none" xmlns="http://www.w3.org/2000/svg"><path d="M2.895 7.355L.069 2.68 1.953.81l4.71 2.805v1.87l4.843 4.81v.4l-1.75 1.603L4.78 7.355H2.895zM23.077 18.71H22c-.942 0-1.75-.134-2.557-.267l-2.825 3.206 6.323 7.08c1.48 1.603 4.037 1.736 5.517.134 1.614-1.604 1.48-4.008-.135-5.477l-5.247-4.676zm4.574-5.076c2.153-2.137 2.826-5.343 2.019-8.149-.135-.534-.808-.668-1.077-.267l-4.709 4.676-3.767-3.74 4.709-4.676c.404-.401.27-.935-.269-1.069-2.825-.935-6.055-.267-8.207 2.004-2.422 2.404-2.96 6.145-1.615 9.084L1.28 23.386c-1.614 1.469-1.749 4.007-.134 5.477 1.614 1.602 4.036 1.469 5.516-.134L18.637 15.37c2.96 1.335 6.593.801 9.014-1.737z" fill="#fff"/></svg>