<svg width="187" height="71" fill="none" xmlns="http://www.w3.org/2000/svg"><path d="M85 37.442V41h-2.157v-1.697H76V31h2.32v6.442h3.205V31h2.32v6.442H85zm8 .591V40h-7v-9h6.839v1.968h-4.403v1.516h3.88v1.903h-3.88v1.646H93zM102 31v9h-2.379v-3.51h-3.243V40H94v-9h2.378v3.378h3.243V31H102zm9.995 2.02h-2.744V40h-2.495v-6.98H104V31h8l-.005 2.02zm6.153-1.613a3.102 3.102 0 011.368 1.157c.329.528.496 1.143.482 1.767a3.067 3.067 0 01-.474 1.75 3.01 3.01 0 01-1.375 1.162 5.014 5.014 0 01-2.096.404h-1.544V40H112v-8.998h4.053a4.992 4.992 0 012.095.405zm-1.076 3.895c.261-.228.392-.55.392-.97a1.246 1.246 0 00-.392-.978c-.263-.231-.651-.347-1.167-.347h-1.393v2.635h1.393c.516 0 .904-.113 1.167-.34zM81.797 52.248H78.16L77.483 54H75l3.798-9h2.392L85 54h-2.527l-.676-1.752zm-.717-1.876l-1.106-2.877-1.106 2.877h2.212zm12.51-.28c.28.385.425.857.409 1.337.012.367-.064.73-.223 1.06a2.198 2.198 0 01-.688.823c-.607.46-1.468.689-2.58.688H86v-9h4.27c1.053 0 1.872.203 2.454.61.28.187.506.445.66.748.152.303.226.642.213.983.007.407-.1.808-.307 1.156a2.17 2.17 0 01-.886.798c.466.134.88.413 1.187.797zM88.45 48.6h1.588c.703 0 1.055-.295 1.055-.886 0-.592-.352-.888-1.055-.889H88.45V48.6zm3.039 2.635c0-.608-.36-.912-1.08-.912h-1.956v1.852h1.956c.719 0 1.079-.313 1.08-.94zm10.507-4.215h-2.744V54h-2.495v-6.98H94V45h8l-.004 2.02zm2.455 6.399a4.518 4.518 0 01-1.791-1.629 4.317 4.317 0 01-.66-2.29c0-.807.228-1.6.66-2.29a4.518 4.518 0 011.791-1.629A5.868 5.868 0 01107 45a5.87 5.87 0 012.549.581 4.518 4.518 0 011.791 1.629c.432.69.66 1.483.66 2.29 0 .807-.228 1.6-.66 2.29a4.518 4.518 0 01-1.791 1.629A5.868 5.868 0 01107 54a5.868 5.868 0 01-2.549-.581zm3.775-1.755c.368-.207.669-.509.87-.872.21-.4.32-.843.32-1.292 0-.449-.11-.892-.32-1.292a2.243 2.243 0 00-.87-.87 2.58 2.58 0 00-2.453 0 2.267 2.267 0 00-.871.87 2.791 2.791 0 000 2.584c.202.362.503.664.871.872a2.588 2.588 0 002.453 0zM121 45v9h-2.389v-6.98h-3.24V54H113v-9h8zm3.45 8.42a4.518 4.518 0 01-1.79-1.63 4.316 4.316 0 01-.66-2.29c0-.807.228-1.6.66-2.29a4.518 4.518 0 011.79-1.63A5.875 5.875 0 01127 45c.885 0 1.758.199 2.55.58a4.518 4.518 0 011.79 1.63c.432.69.66 1.483.66 2.29 0 .807-.228 1.6-.66 2.29a4.518 4.518 0 01-1.79 1.63A5.875 5.875 0 01127 54a5.875 5.875 0 01-2.55-.58zm3.778-1.756c.368-.207.669-.509.87-.872.21-.4.32-.843.32-1.292 0-.449-.11-.892-.32-1.292a2.25 2.25 0 00-.87-.87 2.584 2.584 0 00-2.454 0c-.369.205-.67.507-.871.87-.21.4-.32.843-.32 1.292 0 .449.11.892.32 1.292.201.363.502.665.871.872a2.588 2.588 0 002.454 0zm8.206-1.109h-1.076V54H133v-9h2.357v3.497h1.134L138.489 45h2.488l-2.62 4.346L141 54h-2.666l-1.9-3.445zm11.679-5.148c.56.244 1.037.65 1.373 1.17a3.225 3.225 0 010 3.496 3.128 3.128 0 01-1.373 1.17 4.951 4.951 0 01-2.083.404h-1.537V54H142v-8.998h4.03a4.926 4.926 0 012.083.405zm-1.07 3.895c.26-.228.39-.55.39-.97a1.26 1.26 0 00-.087-.534 1.223 1.223 0 00-.303-.444c-.261-.231-.648-.347-1.159-.347H144.5v2.635h1.385c.512 0 .898-.113 1.158-.34zm9.75 2.946h-3.633L152.483 54H150l3.798-9h2.392l3.81 9h-2.535l-.672-1.752zm-.718-1.876l-1.105-2.877-1.106 2.877h2.211zm6.113 3.052a4.159 4.159 0 01-1.605-1.6A4.896 4.896 0 01160 49.5a4.9 4.9 0 01.583-2.324 4.16 4.16 0 011.604-1.6A4.614 4.614 0 01164.49 45a4.7 4.7 0 012.017.42A3.917 3.917 0 01168 46.634l-1.47 1.408c-.529-.674-1.172-1.012-1.929-1.013a2.26 2.26 0 00-1.183.31 2.089 2.089 0 00-.805.87 3.049 3.049 0 000 2.584c.183.367.463.67.805.872.363.21.77.315 1.183.308.757 0 1.4-.338 1.929-1.013l1.47 1.408a3.902 3.902 0 01-1.493 1.211 4.7 4.7 0 01-2.017.421 4.601 4.601 0 01-2.302-.575zm10.245-2.869h-1.077V54H169v-9h2.356v3.497h1.136L174.489 45h2.488l-2.62 4.346L177 54h-2.666l-1.901-3.445zM178 45h2.325v5.284L183.777 45H186v9h-2.325v-5.272L180.234 54H178v-9zM31.981 16.162A22.645 22.645 0 0028 18a24.597 24.597 0 017.559-3.784 23.403 23.403 0 013.336-.722c3.172-.288 6.585-.47 10.206-.494h.103c.401.131.774.347 1.098.635.278.248.514.546.698.882-8.327.096-13.982.458-15.06.666a39.05 39.05 0 00-2.762.643c-.725.196-1.197.336-1.197.336z" fill="#fff"/><path d="M73 22.843c.014-1.182-1.456-1.978-2.104-2.331-1.512-.828-3.056-.828-3.99-.73a12.627 12.627 0 00-5.115-6.052c-.34-.119-.664-.216-1.004-.324A133.563 133.563 0 0053.364 13a2.66 2.66 0 00-.84.58 3.11 3.11 0 00-.522.737c2.548-.018 5.326-.01 8.28.026a20.386 20.386 0 011.47 7.862H21.71a50.04 50.04 0 00-7.63 2.227c-2.028.77-4.227 1.624-6.813 3.32a29.393 29.393 0 00-3.05 2.297c.02.572.105 1.14.253 1.695.15.564.366 1.108.645 1.623a8.028 8.028 0 00-1.724 3.035 3.818 3.818 0 01-.97-2.19l-.72 2.294a4.843 4.843 0 00-1.51 2.26 4.7 4.7 0 00-.166 1.814c.218.226.437.453.655.682.034.547.067 1.1.097 1.647.144 1.226.288 2.449.43 3.675-.174.124-.348.252-.527.376.13.58.256 1.161.385 1.742.091.38.272.736.527 1.035.21.253.47.461.763.614.325-.66.71-1.29 1.149-1.883a12.581 12.581 0 012.358-2.436 1.729 1.729 0 011.281-.36l28.283 3.356a16.755 16.755 0 014.44 1.978c3.978 2.519 5.827 6.073 6.571 7.794 2.359.265 4.74.265 7.098 0a32.109 32.109 0 0011.903-3.815V42.334a23.775 23.775 0 01.525-6.398c.464-2.07.989-3.055 1.149-3.343.45-.818 1.312-2.01 3.108-3.439l1.622-1.275a26.51 26.51 0 00-1.049-2.025 26.31 26.31 0 00-1.2-1.884h2.923c.288-.31.458-.707.484-1.127zm-34.271 22.23c-3.908.975-14.797-.035-15.42-.092h-.018c-4.015-.4-7.255-.864-9.895-1.295-4.617-.755-5.73-1.139-6.883-1.943-1.454-1.014-1.881-1.938-2.054-2.46-.6-1.82.353-3.509.48-3.721a4.982 4.982 0 011.817-1.79 5.19 5.19 0 01-.192-2.637c.38-1.982 1.83-3.075 2.2-3.344-.3.285-1.946 1.903-1.722 4.097a4.21 4.21 0 00.43 1.46 870.533 870.533 0 0130.158 1.74l11.375-5.558c-3.488 1.995-6.977 3.99-10.467 5.982.71.314 1.37.726 1.96 1.225 1.2 1.012 1.753 2.082 2.198 2.966.544 1.078.85 1.708.622 2.403-.164.497-.53.811-1.052 1.182-.765.531-2.01 1.403-3.537 1.785zm15.857 11.715a25.79 25.79 0 01-4.624.318 20.5 20.5 0 00-7.56-9.608 83.992 83.992 0 016.321-.447c7.374-.236 8.923.695 9.703 1.318 1.516 1.211 2.341 3.032 2.439 3.25.42.945.673 1.952.752 2.98a25.835 25.835 0 01-7.03 2.188v.001zm9.142-22.995a.516.516 0 01-.251.318c-6.583 4.266-10.11 5.298-10.11 5.298A69.479 69.479 0 0146.735 41l-3.584-5.084-1.112-.282 1.541-.178L61.003 31.5l1.977-1.916-1.224 1.912c.92.904 1.588 1.607 1.828 1.909a.517.517 0 01.144.387v.002zM43 59a102.269 102.269 0 01-26.444-3.369A100.96 100.96 0 013 51c4.554 1.39 9.423 2.7 14.607 3.882A206.471 206.471 0 0043 59z" fill="#fff"/><path d="M39 52.937a90.455 90.455 0 01-22.354-1.947A89.425 89.425 0 016 48a181.666 181.666 0 0033 4.937zM66 53l.218-14.71c.213-1.93.852-4.65 2.8-7.161.305-.394.632-.771.982-1.129a15.29 15.29 0 00-2.183 5.185 14.897 14.897 0 00-.327 2.928l-.365 11.183L66 53zM29 12.24c-1.904.247-2.96.953-3.579 1.618-1.408 1.515-1.816 4.165-1.892 4.142-.01 0 0-.05 0-.05.054-.372-.215-2.578-1.943-4.092-1.409-1.234-3.05-1.364-3.586-1.384a6.633 6.633 0 003.84-1.977A6.481 6.481 0 0023.53 7a5.865 5.865 0 001.665 3.534A6.002 6.002 0 0029 12.24zm-9 4.19c-.326.03-.71.127-.984.411-.434.452-.51 1.276-.508 1.145a1.53 1.53 0 00-.538-1.169 1.508 1.508 0 00-.97-.324c.38-.053.734-.228 1.006-.497.272-.27.448-.619.502-.996.037.375.207.725.48.987.274.262.632.419 1.012.442zm34-5.396c-.35.023-.692.095-1.013.213a2.017 2.017 0 00-.627.371c-.156.14-.287.3-.39.473-.032.053-.06.106-.084.146 0 0-.043.079-.084.167-.087.195-.16.394-.222.596a4.686 4.686 0 00-.264-.599 2.108 2.108 0 00-.18-.306 2.108 2.108 0 00-.521-.51 2.54 2.54 0 00-.82-.369 2.931 2.931 0 00-.795-.093 3.18 3.18 0 001.672-.708c.452-.382.745-.88.836-1.415.058.517.324 1 .752 1.372a2.964 2.964 0 001.74.662z" fill="#fff"/><path d="M37 22.037L28.429 32 20 31.64 34.26 22l2.74.037zM33 22l-15.166 9L14 30.907l18.05-8.891L33 22z" fill="#252525"/><path d="M59 54c-.273-.965-.916-2.635-2.503-4.051a9.4 9.4 0 00-1.007-.772c-2.932-1.902-8.77-.957-9.49-.834 3.526-.093 6 .601 7.323 1.075 1.28.459 2 .873 2.387 1.12A10.1 10.1 0 0159 54zM34.538 15.575c1.72-.349 3.57-.488 5.462-.575l-8.41 5.98L23 21c2.593-1.854 5.97-4.289 11.538-5.425zM61 21.965L47 22l2.566-6.938a411.41 411.41 0 0110.31-.05c.233.876.45 1.834.634 2.858a35.92 35.92 0 01.49 4.095z" fill="#fff"/><path d="M49 15l-2.487 6.96L31 22l8.092-6.672c.625-.034 1.255-.06 1.886-.087 2.203-.094 4.915-.183 8.022-.241z" fill="#252525"/></svg>