<svg width="27" height="35" fill="none" xmlns="http://www.w3.org/2000/svg"><path d="M13.5 19a5.5 5.5 0 100-11 5.5 5.5 0 000 11z" fill="#252525"/><path d="M26.536 13.079a2.273 2.273 0 00.441-1.702 2.278 2.278 0 00-.896-1.505l-.944-.695a2.252 2.252 0 01-.719-.89 2.285 2.285 0 01-.193-1.133l.1-1.178a2.287 2.287 0 00-.532-1.681 2.232 2.232 0 00-1.561-.78l-1.165-.066a2.207 2.207 0 01-1.079-.355 2.247 2.247 0 01-.766-.848l-.54-1.047a2.252 2.252 0 00-.562-.693 2.218 2.218 0 00-1.668-.49 2.206 2.206 0 00-.842.281l-1.014.582a2.204 2.204 0 01-2.195 0L11.387.297a2.207 2.207 0 00-3.07.913l-.539 1.047a2.247 2.247 0 01-.766.848c-.323.21-.695.333-1.079.355l-1.165.066a2.204 2.204 0 00-1.561.78 2.267 2.267 0 00-.532 1.68l.1 1.179c.033.388-.033.779-.193 1.133-.16.355-.407.661-.719.89l-.944.694a2.278 2.278 0 00-.456 3.207l.713.936a2.274 2.274 0 01.313 2.2l-.424 1.094a2.286 2.286 0 00.57 2.484c.219.204.476.362.757.463l1.098.397c.362.13.685.354.937.649.252.294.424.65.5 1.032l.21 1.04-2.802 9.232 4.445-1.41L9.547 35l2.528-8.374a2.206 2.206 0 002.716.101L17.45 35l2.767-3.795 4.445 1.41-2.87-8.923a2.18 2.18 0 00.049-.189l.229-1.159a2.27 2.27 0 01.5-1.032 2.23 2.23 0 01.938-.65l1.097-.396a2.22 2.22 0 00.758-.463 2.258 2.258 0 00.72-1.6 2.287 2.287 0 00-.15-.884l-.424-1.094a2.287 2.287 0 01.313-2.2l.714-.946zm-20.738.497A7.88 7.88 0 017.096 9.24a7.724 7.724 0 013.456-2.875A7.604 7.604 0 0115 5.92a7.668 7.668 0 013.943 2.136 7.839 7.839 0 012.107 3.996 7.904 7.904 0 01-.438 4.51 7.784 7.784 0 01-2.836 3.503 7.626 7.626 0 01-4.278 1.316 7.656 7.656 0 01-5.443-2.289A7.868 7.868 0 015.8 13.576z" fill="#252525"/></svg>