<svg width="35" height="36" fill="none" xmlns="http://www.w3.org/2000/svg"><path d="M23.666 2H10.334c-.942 0-1.588.894-1.237 1.714L10.333 7h13.334l1.236-3.286C25.253 2.894 24.61 2 23.666 2zm.001 8H10.333S1 18.21 1 27.79C1 33.263 5 36 7.667 36h18.666C29 36 33 33.263 33 27.79 33 18.21 23.667 10 23.667 10zm-5.334 19.018v2.192h-2.666v-2.185c-1.962-.377-3.195-1.615-3.267-3.422h2.31c.11.95 1.043 1.558 2.389 1.558 1.241 0 2.12-.617 2.12-1.502 0-.747-.57-1.177-1.97-1.486l-1.486-.325c-2.08-.446-3.102-1.558-3.102-3.344 0-1.797 1.159-3.078 3.006-3.5V14.79h2.666v2.212c1.8.413 3.003 1.672 3.062 3.373h-2.247c-.11-.925-.95-1.542-2.104-1.542-1.195 0-1.985.568-1.985 1.461 0 .723.545 1.137 1.882 1.429l1.376.3c2.295.496 3.283 1.512 3.283 3.329 0 1.957-1.224 3.27-3.267 3.667z" fill="#252525"/><path d="M21 4h-8a4 4 0 118 0z" fill="#252525"/></svg>